<?xml version="1.0" encoding="utf-8"?>
<!-- Generator: Adobe Illustrator 16.0.0, SVG Export Plug-In . SVG Version: 6.00 Build 0)  -->
<!DOCTYPE svg PUBLIC "-//W3C//DTD SVG 1.1//EN" "http://www.w3.org/Graphics/SVG/1.1/DTD/svg11.dtd">
<svg version="1.1" id="Capa_1" xmlns="http://www.w3.org/2000/svg" xmlns:xlink="http://www.w3.org/1999/xlink" x="0px" y="0px"
	 width="173.782px" height="180px" viewBox="55.609 0 173.782 180" enable-background="new 55.609 0 173.782 180"
	 xml:space="preserve">
<path fill="#FFFFFF" d="M226.749,163.951l-42.841-44.556c11.016-13.095,17.051-29.569,17.051-46.721
	C200.959,32.603,168.356,0,128.284,0S55.609,32.603,55.609,72.675s32.603,72.675,72.675,72.675c15.044,0,29.38-4.537,41.636-13.15
	l43.166,44.894c1.805,1.874,4.231,2.907,6.832,2.907c2.461,0,4.797-0.938,6.568-2.645
	C230.254,173.73,230.373,167.721,226.749,163.951z M128.284,18.958c29.62,0,53.716,24.097,53.716,53.716
	c0,29.62-24.096,53.716-53.716,53.716c-29.62,0-53.716-24.096-53.716-53.716C74.568,43.055,98.665,18.958,128.284,18.958z"/>
</svg>
