<?xml version="1.0" encoding="utf-8"?>
<!-- Generator: Adobe Illustrator 16.0.0, SVG Export Plug-In . SVG Version: 6.00 Build 0)  -->
<!DOCTYPE svg PUBLIC "-//W3C//DTD SVG 1.1//EN" "http://www.w3.org/Graphics/SVG/1.1/DTD/svg11.dtd">
<svg version="1.1" id="Layer_1" xmlns="http://www.w3.org/2000/svg" xmlns:xlink="http://www.w3.org/1999/xlink" x="0px" y="0px"
	 width="1447.402px" height="366.943px" viewBox="0 0 1447.402 366.943" enable-background="new 0 0 1447.402 366.943"
	 xml:space="preserve">
<path fill="#FFFFFF" d="M426.413,234.227c-2.541,5.869-4.494,10.496-5.882,13.914c-1.362,3.403-2.035,5.92-2.035,7.643
	c0,1.702,0.701,2.774,2.183,3.226c1.431,0.464,3.655,0.701,6.687,0.701v2.854c-2.479-0.076-5.164-0.145-8.196-0.203
	c-3.025-0.024-6.195-0.048-9.578-0.048c-3.466,0-6.484,0.023-9.097,0.048c-2.592,0.059-4.655,0.127-6.206,0.203v-2.854
	c1.984,0,3.651-0.282,5.044-0.818c1.403-0.537,2.822-1.919,4.366-4.164c1.568-2.255,3.349-5.594,5.449-10.084
	c2.16-4.455,4.899-10.672,8.389-18.641l27.35-62.294h2.726l26.377,62.294c3.383,7.969,6.082,14.186,8.063,18.641
	c2.056,4.49,3.747,7.829,5.191,10.084c1.471,2.245,2.901,3.627,4.204,4.164c1.331,0.536,2.988,0.818,4.965,0.818v2.854
	c-1.465-0.076-3.421-0.145-5.858-0.203c-2.444-0.024-5.501-0.048-9.177-0.048c-3.641,0-7.144,0.023-10.521,0.048
	c-3.383,0.059-6.103,0.127-8.23,0.203v-2.854c2.981,0,5.13-0.237,6.505-0.701c1.444-0.451,2.132-1.523,2.132-3.226
	c0-1.723-0.602-4.239-1.912-7.643c-1.278-3.418-3.146-8.045-5.597-13.914H426.413z M460.034,225.133l-0.113-0.361
	c-3.185-8.038-5.729-14.354-7.588-18.975c-1.874-4.59-3.263-8.155-4.264-10.62c-0.941-2.506-1.616-4.197-1.983-5.081
	c-0.306-0.945-0.592-1.682-0.674-2.276h-0.121c-0.186,0.595-0.43,1.331-0.76,2.276c-0.31,0.884-0.956,2.575-1.977,5.026
	c-1.038,2.431-2.472,5.972-4.445,10.6c-1.963,4.648-4.621,11.012-8.018,19.05l-0.134,0.361H460.034z"/>
<path fill="#FFFFFF" d="M570.018,235.576c0,4.579-1.011,8.581-3.067,12.054c-2.066,3.504-4.696,6.295-7.876,8.454
	c-3.456,2.317-7.399,4.022-11.807,5.044c-4.449,1.052-9.654,1.561-15.671,1.561c-1.303,0-2.609-0.037-3.964-0.079
	c-1.402-0.034-2.706-0.082-3.978-0.175c-1.266,0-2.545-0.018-3.81-0.072c-1.275-0.024-2.551-0.049-3.861-0.049
	c-1.705,0-3.902,0.024-6.442,0.049c-2.62,0.055-5.491,0.127-8.555,0.199v-2.854c2.796,0,5.017-0.282,6.608-0.815
	c1.592-0.536,2.74-1.922,3.41-4.163c0.66-2.255,1.076-5.594,1.245-10.087c0.12-4.456,0.196-10.669,0.196-18.642v-26.37
	c0-7.43-0.049-13.288-0.131-17.534c-0.106-4.235-0.475-7.374-1.107-9.499c-0.633-2.111-1.619-3.407-3.05-3.905
	c-1.45-0.509-3.42-0.757-5.975-0.757v-2.606c2.09,0.066,4.645,0.11,7.595,0.066c2.953-0.028,5.504-0.066,7.56-0.066
	c1.85,0,3.999-0.044,6.439-0.13c2.452-0.079,5.168-0.117,8.107-0.117c2.912,0,5.69,0.161,8.306,0.437
	c2.627,0.271,5.003,0.691,7,1.165c2.387,0.691,4.594,1.62,6.832,2.813c2.2,1.189,4.143,2.739,5.804,4.668
	c1.712,1.885,3.015,4.112,4.07,6.656c0.986,2.507,1.461,5.404,1.461,8.637c0,2.971-0.611,5.734-1.705,8.323
	c-1.114,2.568-2.63,4.816-4.459,6.725c-1.795,1.898-3.889,3.477-6.285,4.8c-2.376,1.272-4.762,2.07-7.233,2.394v0.13
	c3.373,0.413,6.516,1.269,9.499,2.537c2.991,1.331,5.563,2.964,7.715,5.058c2.225,2.08,3.934,4.459,5.216,7.206
	c1.269,2.74,1.912,5.69,1.912,8.822V235.576z M552.246,190.444c0-5.483-1.836-9.582-5.587-12.328
	c-3.676-2.699-8.454-4.095-14.398-4.095c-1.833,0-3.359,0.034-4.553,0.144c-1.275,0.056-2.23,0.162-2.97,0.255v33.445
	c0.554,0.062,1.23,0.117,1.938,0.117h2.159c1.296,0,2.844-0.072,4.594-0.192c1.794-0.121,3.431-0.434,5.022-0.929
	c1.63-0.43,3.29-1.028,4.882-1.863c1.658-0.832,3.133-1.905,4.46-3.17c1.34-1.275,2.389-2.867,3.228-4.737
	c0.764-1.851,1.225-4.047,1.225-6.52V190.444z M556.891,234.943c0-2.39-0.437-4.524-1.316-6.405c-0.832-1.87-1.98-3.452-3.328-4.83
	c-1.358-1.368-2.909-2.455-4.583-3.28c-1.705-0.828-3.377-1.465-4.968-1.888c-1.754-0.415-3.689-0.752-5.759-1.034
	c-2.122-0.337-4.339-0.447-6.732-0.447c-0.776,0-1.736,0-2.784,0.052c-1.069,0.024-1.942,0.1-2.682,0.175v30.345
	c0,1.922,0.103,3.114,0.268,3.609c0.203,0.495,0.719,0.919,1.523,1.235c1.028,0.292,2.173,0.443,3.482,0.509
	c1.358,0.092,2.492,0.127,3.624,0.127c2.166,0,4.411-0.237,6.735-0.698c2.231-0.454,4.022-1.014,5.305-1.668
	c3.214-1.251,5.845-3.114,7.997-5.642c2.135-2.517,3.218-5.865,3.218-10.021V234.943z"/>
<path fill="#FFFFFF" d="M669.049,211.208c0,8.623-1.664,16.376-5.055,23.317c-3.376,6.941-8.389,12.786-15.027,17.596
	c-5.085,3.555-10.978,6.185-17.493,7.89c-6.566,1.682-14.55,2.552-23.963,2.552c-1.912,0-4.436-0.034-7.619-0.127
	c-3.128-0.097-6.271-0.121-9.44-0.121c-3.156,0-6.055,0.024-8.795,0.045c-2.706,0.059-5.512,0.128-8.468,0.203v-2.854
	c3.025,0,5.332-0.316,7.003-0.873c1.612-0.599,2.83-1.978,3.528-4.253c0.756-2.225,1.199-5.573,1.285-10.053
	c0.155-4.47,0.244-10.669,0.244-18.528v-26.37c0-7.43-0.089-13.288-0.244-17.458c-0.086-4.198-0.529-7.31-1.237-9.376
	c-0.64-2.073-1.795-3.379-3.421-3.885c-1.578-0.481-3.769-0.729-6.646-0.729v-2.727h3.98c1.469,0,2.981-0.018,4.518-0.065
	c1.568-0.027,3.112-0.062,4.666-0.062h4.366c3.043,0,5.883-0.045,8.633-0.193c2.754-0.137,6.285-0.171,10.651-0.171
	c4.349,0,8.162,0.154,11.61,0.426c3.5,0.278,6.643,0.749,9.517,1.361c2.908,0.636,5.576,1.382,8.059,2.279
	c2.551,0.936,4.961,2.005,7.348,3.27c6.8,3.548,12.226,8.736,16.148,15.52c3.892,6.797,5.852,14.561,5.852,23.266V211.208z
	 M655.252,211.7c0-6.454-1.403-12.388-4.181-17.779c-2.778-5.384-6.581-9.557-11.56-12.542c-3.479-2.189-7.681-3.815-12.651-4.978
	c-4.958-1.189-10.342-1.764-16.056-1.764c-2.631,0-4.813,0.038-6.567,0.145c-1.76,0.082-3.819,0.188-6.15,0.354v73.482
	c0,1.354,0.183,2.251,0.55,2.688c0.371,0.461,1.148,0.764,2.308,0.929c1.251,0.165,2.695,0.316,4.287,0.368
	c1.629,0.068,3.225,0.161,4.893,0.161c6.273,0,11.95-0.739,17.021-2.162c5.047-1.393,9.571-3.624,13.446-6.688
	c4.882-3.645,8.495-8.221,10.946-13.669c2.432-5.474,3.714-11.601,3.714-18.414V211.7z"/>
<path fill="#FFFFFF" d="M682.044,199.633c0-7.43-0.041-13.288-0.202-17.537c-0.135-4.232-0.523-7.371-1.197-9.496
	c-0.701-2.114-1.836-3.407-3.387-3.906c-1.526-0.509-3.723-0.76-6.515-0.76v-2.854c2.994,0.076,6.003,0.162,9.073,0.206
	c3.019,0.035,6.25,0.042,9.619,0.042c3.174,0,6.281-0.007,9.173-0.042c2.902-0.044,5.684-0.13,8.348-0.206v2.854
	c-3.022,0-5.325,0.251-6.91,0.76c-1.634,0.499-2.833,1.792-3.579,3.906c-0.75,2.125-1.193,5.264-1.348,9.496
	c-0.176,4.249-0.203,10.107-0.203,17.537v23.503c0,5.896,0.753,10.571,2.27,14.079c1.492,3.458,3.695,6.49,6.587,9.055
	c2.39,2.153,5.284,3.775,8.791,4.862c3.452,1.062,7.275,1.633,11.445,1.633c3.765,0,7.265-0.608,10.62-1.847
	c3.325-1.179,6.15-2.854,8.53-5.02c2.826-2.482,4.934-5.549,6.34-9.2c1.341-3.647,2.008-8.11,2.008-13.418v-23.647
	c0-7.43-0.076-13.288-0.189-17.537c-0.127-4.232-0.557-7.371-1.31-9.496c-0.76-2.114-1.953-3.445-3.634-3.981
	c-1.692-0.561-3.988-0.805-7.063-0.805v-2.733c3.143,0.076,6.158,0.162,9.104,0.206c2.98,0.035,5.883,0.042,8.701,0.042
	c3.219,0,6.24-0.007,9.114-0.042c2.86-0.044,5.491-0.13,7.997-0.206v2.733c-2.686,0-4.692,0.244-6.123,0.805
	c-1.399,0.536-2.438,1.867-3.118,3.981c-0.705,2.125-1.059,5.264-1.179,9.496c-0.09,4.249-0.121,10.107-0.121,17.537v23.142
	c0,7.87-1.027,14.196-3.104,19.029c-2.035,4.797-4.861,8.798-8.393,11.927c-3.021,2.634-6.958,4.965-11.792,6.955
	c-4.94,2.005-10.349,2.984-16.39,2.984c-6.793,0-12.917-0.948-18.242-2.843c-5.329-1.936-9.768-4.655-13.306-8.224
	c-3.661-3.47-6.295-7.561-7.918-12.254c-1.667-4.655-2.499-10.107-2.499-16.338V199.633z"/>
<path fill="#FFFFFF" d="M792.359,199.633c0-7.43-0.048-13.288-0.169-17.537c-0.161-4.232-0.57-7.371-1.233-9.496
	c-0.726-2.114-1.874-3.407-3.459-3.906c-1.585-0.509-3.819-0.76-6.643-0.76v-2.854c2.647,0.076,5.401,0.162,8.3,0.206
	c2.874,0.035,6.058,0.042,9.503,0.042c3.365,0,6.501-0.007,9.434-0.042c2.895-0.044,5.677-0.13,8.307-0.206v2.854
	c-2.778,0-4.961,0.251-6.446,0.76c-1.51,0.499-2.651,1.792-3.369,3.906c-0.712,2.125-1.162,5.264-1.311,9.496
	c-0.113,4.249-0.175,10.107-0.175,17.537v25.748v24.234c0,1.169,0.24,1.99,0.812,2.414c0.554,0.484,1.43,0.735,2.732,0.735h22.255
	c2.241,0,4.143-0.213,5.797-0.592c1.723-0.367,3.046-1.093,4.074-2.183c0.794-0.739,1.485-1.888,1.952-3.477
	c0.52-1.561,0.867-3.465,1.09-5.714h2.961c-0.241,4.397-0.481,8.259-0.63,11.559c-0.096,3.318-0.161,6.722-0.161,10.205
	c-2.17,0-4.689-0.035-7.481-0.076c-2.733-0.034-5.707-0.068-8.911-0.127c-3.088-0.024-6.354-0.048-9.695-0.048h-9.765
	c-6.374,0-12.222,0.023-17.506,0.048c-5.285,0.059-9.287,0.127-12.02,0.203v-2.854c3.001,0,5.312-0.282,6.896-0.818
	c1.585-0.537,2.781-1.919,3.5-4.164c0.749-2.255,1.141-5.594,1.275-10.084c0.038-4.455,0.086-10.672,0.086-18.641V199.633z"/>
<path fill="#FFFFFF" d="M863.31,199.633c0-7.43-0.072-13.288-0.233-17.537c-0.124-4.232-0.558-7.371-1.231-9.496
	c-0.684-2.114-1.832-3.407-3.424-3.906c-1.585-0.509-3.813-0.76-6.646-0.76v-2.854c2.61,0.076,5.419,0.162,8.279,0.206
	c2.898,0.035,6.044,0.042,9.482,0.042c3.39,0,6.58-0.007,9.479-0.042c2.895-0.044,5.677-0.13,8.361-0.206v2.854
	c-2.874,0-5.022,0.251-6.546,0.76c-1.465,0.499-2.613,1.792-3.331,3.906c-0.753,2.125-1.197,5.264-1.304,9.496
	c-0.12,4.249-0.213,10.107-0.213,17.537v25.748v24.234c0,1.169,0.282,1.99,0.818,2.414c0.55,0.484,1.472,0.735,2.771,0.735h22.275
	c2.139,0,4.146-0.213,5.804-0.592c1.698-0.367,3.057-1.093,4.05-2.183c0.784-0.739,1.468-1.888,1.967-3.477
	c0.491-1.561,0.839-3.465,1.021-5.714h3.001c-0.269,4.397-0.471,8.259-0.592,11.559c-0.168,3.318-0.24,6.722-0.24,10.205
	c-2.169,0-4.635-0.035-7.447-0.076c-2.768-0.034-5.734-0.068-8.877-0.127c-3.136-0.024-6.374-0.048-9.726-0.048h-9.73
	c-6.433,0-12.249,0.023-17.521,0.048c-5.298,0.059-9.278,0.127-12.067,0.203v-2.854c3.036,0,5.347-0.282,6.932-0.818
	c1.592-0.537,2.774-1.919,3.493-4.164c0.732-2.255,1.106-5.594,1.241-10.084c0.082-4.455,0.154-10.672,0.154-18.641V199.633z"/>
<path fill="#FFFFFF" d="M952.688,234.227c-2.586,5.869-4.538,10.496-5.917,13.914c-1.323,3.403-2.035,5.92-2.035,7.643
	c0,1.702,0.746,2.774,2.204,3.226c1.458,0.464,3.686,0.701,6.7,0.701v2.854c-2.458-0.076-5.208-0.145-8.192-0.203
	c-3.047-0.024-6.236-0.048-9.606-0.048c-3.473,0-6.494,0.023-9.08,0.048c-2.564,0.059-4.627,0.127-6.24,0.203v-2.854
	c2.022,0,3.689-0.282,5.086-0.818c1.36-0.537,2.818-1.919,4.39-4.164c1.554-2.255,3.312-5.594,5.446-10.084
	c2.09-4.455,4.882-10.672,8.341-18.641l27.353-62.294h2.754l26.419,62.294c3.334,7.969,6.033,14.186,8.041,18.641
	c2.043,4.49,3.755,7.829,5.178,10.084c1.513,2.245,2.86,3.627,4.219,4.164c1.31,0.536,2.987,0.818,4.975,0.818v2.854
	c-1.485-0.076-3.431-0.145-5.869-0.203c-2.485-0.024-5.538-0.048-9.2-0.048c-3.657,0-7.165,0.023-10.499,0.048
	c-3.38,0.059-6.127,0.127-8.228,0.203v-2.854c2.939,0,5.096-0.237,6.515-0.701c1.403-0.451,2.107-1.523,2.107-3.226
	c0-1.723-0.639-4.239-1.915-7.643c-1.269-3.418-3.135-8.045-5.593-13.914H952.688z M986.346,225.133l-0.168-0.361
	c-3.17-8.038-5.687-14.354-7.595-18.975c-1.84-4.59-3.249-8.155-4.229-10.62c-0.98-2.506-1.619-4.197-1.98-5.081
	c-0.357-0.945-0.599-1.682-0.694-2.276h-0.135c-0.161,0.595-0.409,1.331-0.756,2.276c-0.303,0.884-0.956,2.575-1.984,5.026
	c-1.007,2.431-2.475,5.972-4.452,10.6c-1.915,4.648-4.586,11.012-7.959,19.05l-0.161,0.361H986.346z"/>
<path fill="#FFFFFF" d="M1118.047,226.002c0,7.86,0.068,14.059,0.202,18.528c0.155,4.477,0.589,7.828,1.396,10.053
	c0.76,2.276,1.98,3.654,3.651,4.253c1.698,0.557,4.177,0.873,7.354,0.873v2.854c-2.847-0.075-5.687-0.145-8.623-0.203
	c-2.946-0.023-6.081-0.044-9.581-0.044c-3.545,0-6.89,0.021-10.054,0.044c-3.142,0.059-6.363,0.128-9.615,0.203v-2.854
	c3.083,0,5.473-0.281,7.191-0.818c1.668-0.536,2.916-1.843,3.662-3.885c0.77-2.091,1.214-5.185,1.396-9.279
	c0.106-4.126,0.183-9.768,0.183-16.987v-11.05h-54.593v11.05c0,7.22,0.134,12.861,0.24,16.987c0.127,4.095,0.571,7.188,1.275,9.279
	c0.746,2.042,1.949,3.349,3.613,3.885c1.678,0.537,4.108,0.818,7.09,0.818v2.854c-3.102-0.075-6.13-0.145-9.025-0.203
	c-2.905-0.023-6.123-0.044-9.567-0.044c-3.473,0-6.808,0.021-10.07,0.044c-3.273,0.059-6,0.128-8.402,0.203v-2.854
	c2.994,0,5.305-0.316,6.965-0.873c1.63-0.599,2.84-1.977,3.538-4.253c0.746-2.225,1.196-5.576,1.316-10.053
	c0.106-4.47,0.199-10.668,0.199-18.528v-26.369c0-7.375-0.093-13.168-0.199-17.397c-0.12-4.231-0.57-7.419-1.203-9.513
	c-0.753-2.107-1.867-3.452-3.445-3.978c-1.599-0.561-3.813-0.812-6.646-0.812v-2.854c2.193,0.075,4.886,0.161,8.145,0.206
	c3.215,0.034,6.505,0.045,9.803,0.045c3.365,0,6.467-0.011,9.272-0.045c2.836-0.045,5.586-0.131,8.199-0.206v2.854
	c-2.757,0-4.848,0.251-6.363,0.812c-1.458,0.525-2.572,1.829-3.26,3.854c-0.712,2.039-1.107,5.037-1.234,9.098
	c-0.106,4.026-0.24,9.513-0.24,16.465v9.822h54.593v-9.943c0-6.965-0.027-12.483-0.11-16.498c-0.141-4.02-0.481-6.997-1.206-8.987
	c-0.671-2.015-1.754-3.284-3.191-3.81c-1.45-0.561-3.564-0.812-6.305-0.812v-2.854c2.605,0.075,5.366,0.161,8.11,0.206
	c2.702,0.034,5.724,0.045,9.024,0.045c3.211,0,6.288-0.011,9.143-0.045c2.791-0.045,5.404-0.131,7.801-0.206v2.854
	c-2.679,0-4.687,0.251-6.062,0.812c-1.324,0.525-2.372,1.87-3.05,3.978c-0.66,2.094-1.114,5.281-1.189,9.513
	c-0.059,4.229-0.127,10.022-0.127,17.397V226.002z"/>
<path fill="#FFFFFF" d="M1172.767,213.835c0-7.952,1.578-15.038,4.748-21.223c3.149-6.188,7.526-11.356,13.007-15.612
	c5.452-4.205,11.864-7.409,19.211-9.53c7.348-2.184,15.155-3.267,23.286-3.267c5.009,0,9.871,0.241,14.533,0.764
	c1.262,0.154,3.008,0.364,5.346,0.639c2.27,0.217,4.47,0.551,6.525,0.963c-0.202,2.225-0.36,4.198-0.484,5.986
	c-0.113,1.732-0.233,3.451-0.282,5.129c-0.023,1.709-0.086,3.442-0.199,5.247c-0.068,1.771-0.113,3.819-0.113,6.164h-3.016
	c-0.103-2.998-0.57-5.397-1.393-7.186c-0.791-1.764-1.994-3.187-3.53-4.291c-1.634-1.127-4.102-2.038-7.327-2.678
	c-3.242-0.599-6.842-0.918-10.85-0.918c-6.842,0-13.075,0.918-18.662,2.784c-5.632,1.871-10.407,4.525-14.375,8.001
	c-3.984,3.417-6.993,7.588-9.18,12.483c-2.237,4.906-3.311,10.342-3.311,16.39c0,6.243,1.121,11.796,3.445,16.736
	c2.193,4.944,5.384,9.117,9.42,12.559c3.961,3.449,8.702,6.082,14.055,7.942c5.37,1.867,11.174,2.813,17.376,2.813
	c6.629,0,11.893-0.543,15.702-1.609c0-1.076,0.034-2.266,0.078-3.62c0.035-1.31,0.097-2.664,0.155-3.971
	c0.041-1.358,0.082-2.564,0.082-3.73v-2.971c0-4.16-0.109-7.457-0.315-9.963c-0.148-2.486-0.64-4.415-1.431-5.772
	c-0.794-1.365-1.974-2.283-3.669-2.751c-1.581-0.461-3.885-0.701-6.745-0.801v-2.844c2.503,0.165,5.298,0.278,8.307,0.357
	c2.995,0.079,6.023,0.128,9.024,0.128c3.04,0,5.955-0.049,8.75-0.128c2.854-0.079,5.471-0.192,8.042-0.357v2.844
	c-2.349,0.1-4.194,0.34-5.483,0.739c-1.379,0.437-2.29,1.306-2.882,2.685c-0.577,1.369-0.955,3.349-1.041,5.979
	c-0.1,2.578-0.148,6.171-0.148,10.727v5.243c0,3.063,0.049,6.15,0.148,9.272c0.086,3.087,0.22,5.579,0.389,7.498
	c-4.067,1.008-8.365,1.771-12.907,2.3c-4.482,0.537-9.929,0.839-16.214,0.839c-8.447,0-16.259-1.135-23.472-3.403
	c-7.145-2.197-13.268-5.46-18.369-9.727c-5.119-4.27-9.08-9.485-11.934-15.667c-2.874-6.179-4.298-13.198-4.298-21.082V213.835z"/>
<path fill="#FFFFFF" d="M1282.281,199.635c0-7.434-0.048-13.292-0.202-17.538c-0.148-4.232-0.558-7.375-1.214-9.499
	c-0.697-2.111-1.832-3.407-3.346-3.902c-1.599-0.513-3.747-0.76-6.58-0.76v-2.854c3.036,0.071,6.023,0.161,9.094,0.202
	c3.073,0.035,6.229,0.045,9.654,0.045c3.177,0,6.271-0.01,9.146-0.045c2.942-0.041,5.734-0.131,8.354-0.202v2.854
	c-3.043,0-5.291,0.247-6.877,0.76c-1.646,0.495-2.781,1.791-3.6,3.902c-0.753,2.124-1.221,5.267-1.344,9.499
	c-0.151,4.246-0.179,10.104-0.179,17.538v23.502c0,5.893,0.746,10.572,2.262,14.075c1.465,3.459,3.687,6.495,6.595,9.06
	c2.403,2.152,5.298,3.775,8.736,4.861c3.458,1.063,7.271,1.633,11.482,1.633c3.762,0,7.278-0.608,10.638-1.846
	c3.335-1.18,6.144-2.857,8.499-5.02c2.826-2.482,4.923-5.553,6.318-9.2c1.338-3.651,2.036-8.114,2.036-13.419v-23.646
	c0-7.434-0.042-13.292-0.147-17.538c-0.176-4.232-0.633-7.375-1.324-9.499c-0.739-2.111-1.96-3.445-3.679-3.981
	c-1.667-0.558-3.995-0.802-7.03-0.802v-2.732c3.114,0.071,6.178,0.161,9.117,0.202c2.943,0.035,5.876,0.045,8.701,0.045
	c3.185,0,6.192-0.01,9.06-0.045c2.895-0.041,5.566-0.131,8.038-0.202v2.732c-2.657,0-4.699,0.244-6.137,0.802
	c-1.361,0.536-2.417,1.87-3.122,3.981c-0.69,2.124-1.075,5.267-1.155,9.499c-0.12,4.246-0.12,10.104-0.12,17.538v23.141
	c0,7.867-1.028,14.196-3.091,19.026c-2.046,4.8-4.861,8.802-8.42,11.931c-2.994,2.633-6.938,4.961-11.823,6.951
	c-4.861,2.005-10.342,2.988-16.358,2.988c-6.817,0-12.906-0.953-18.245-2.847c-5.333-1.933-9.771-4.652-13.302-8.221
	c-3.666-3.469-6.306-7.561-7.97-12.257c-1.641-4.651-2.466-10.104-2.466-16.338V199.635z M1311.43,144.563
	c2.297,0,4.184,0.753,5.728,2.162c1.554,1.462,2.311,3.219,2.311,5.274c0,2.032-0.757,3.72-2.311,5.126
	c-1.544,1.413-3.503,2.118-5.882,2.118c-2.18,0-4.054-0.705-5.639-2.118c-1.64-1.406-2.424-3.094-2.424-5.126
	c0-2.056,0.784-3.813,2.424-5.274c1.585-1.409,3.459-2.162,5.639-2.162H1311.43z M1336.981,144.563c2.29,0,4.19,0.753,5.734,2.162
	c1.599,1.462,2.362,3.219,2.362,5.274c0,2.032-0.764,3.72-2.362,5.126c-1.544,1.413-3.444,2.118-5.841,2.118
	c-2.225,0-4.099-0.705-5.69-2.118c-1.578-1.406-2.41-3.094-2.41-5.126c0-2.056,0.832-3.813,2.41-5.274
	c1.592-1.409,3.466-2.162,5.69-2.162H1336.981z"/>
<path fill="#FFFFFF" d="M1393.562,199.633c0-7.43-0.027-13.288-0.195-17.537c-0.121-4.232-0.564-7.371-1.228-9.496
	c-0.719-2.114-1.818-3.407-3.425-3.906c-1.585-0.509-3.774-0.76-6.648-0.76v-2.854c2.691,0.076,5.466,0.162,8.285,0.206
	c2.895,0.035,6.093,0.042,9.503,0.042c3.373,0,6.553-0.007,9.469-0.042c2.895-0.044,5.728-0.13,8.341-0.206v2.854
	c-2.868,0-5.044,0.251-6.502,0.76c-1.485,0.499-2.63,1.792-3.362,3.906c-0.746,2.125-1.135,5.264-1.303,9.496
	c-0.11,4.249-0.148,10.107-0.148,17.537v25.748v24.234c0,1.169,0.199,1.99,0.784,2.414c0.52,0.484,1.479,0.735,2.74,0.735h22.247
	c2.197,0,4.144-0.213,5.828-0.592c1.691-0.367,3.05-1.093,4.043-2.183c0.812-0.739,1.472-1.888,2.001-3.477
	c0.464-1.561,0.846-3.465,0.993-5.714H1448c-0.275,4.397-0.471,8.259-0.598,11.559c-0.162,3.318-0.255,6.722-0.255,10.205
	c-2.163,0-4.635-0.035-7.426-0.076c-2.74-0.034-5.7-0.068-8.892-0.127c-3.142-0.024-6.332-0.048-9.657-0.048h-9.829
	c-6.389,0-12.175,0.023-17.486,0.048c-5.291,0.059-9.307,0.127-12.054,0.203v-2.854c3.015,0,5.325-0.282,6.91-0.818
	c1.606-0.537,2.761-1.919,3.504-4.164c0.718-2.255,1.117-5.594,1.244-10.084c0.1-4.455,0.1-10.672,0.1-18.641V199.633z"/>
<path fill="#FFFFFF" d="M501.579,324.383c0-4.996-0.027-8.867-0.106-11.714c-0.086-2.819-0.396-4.896-0.836-6.363
	c-0.474-1.39-1.213-2.252-2.228-2.586c-1.045-0.323-2.544-0.509-4.369-0.509v-1.912c1.983,0.059,4.008,0.101,6.037,0.131
	c2.031,0.042,4.17,0.042,6.442,0.042c2.146,0,4.167,0,6.075-0.042c1.983-0.03,3.861-0.072,5.614-0.131v1.912
	c-2.039,0-3.534,0.186-4.631,0.509c-1.06,0.334-1.84,1.196-2.369,2.586c-0.522,1.468-0.787,3.544-0.914,6.363
	c-0.065,2.847-0.106,6.718-0.106,11.714v15.678c0,3.937,0.498,7.071,1.478,9.354c0.97,2.348,2.482,4.359,4.438,6.075
	c1.585,1.451,3.535,2.521,5.828,3.272c2.311,0.716,4.854,1.039,7.667,1.039c2.526,0,4.864-0.375,7.096-1.176
	c2.187-0.805,4.146-1.908,5.677-3.376c1.914-1.654,3.304-3.707,4.211-6.147c0.922-2.407,1.361-5.419,1.361-8.963v-15.757
	c0-4.996-0.044-8.867-0.12-11.714c-0.079-2.819-0.351-4.896-0.839-6.363c-0.519-1.39-1.31-2.27-2.465-2.624
	c-1.107-0.357-2.668-0.557-4.683-0.557v-1.826c2.06,0.059,4.092,0.101,6.089,0.131c1.974,0.042,3.885,0.042,5.8,0.042
	c2.101,0,4.129,0,6.093-0.042c1.897-0.03,3.637-0.072,5.314-0.131v1.826c-1.787,0-3.087,0.199-4.06,0.557
	c-0.949,0.354-1.675,1.234-2.149,2.624c-0.437,1.468-0.674,3.544-0.753,6.363c-0.041,2.847-0.086,6.718-0.086,11.714v15.43
	c0,5.295-0.67,9.496-2.063,12.689c-1.345,3.178-3.222,5.869-5.649,7.994c-1.979,1.743-4.61,3.304-7.835,4.613
	c-3.29,1.297-6.903,2.019-10.939,2.019c-4.556,0-8.612-0.649-12.185-1.911c-3.548-1.307-6.516-3.122-8.897-5.48
	c-2.407-2.311-4.185-5.044-5.309-8.193c-1.066-3.136-1.63-6.756-1.63-10.901V324.383z M521.011,287.603
	c1.54,0,2.84,0.491,3.83,1.468c1.083,0.952,1.551,2.128,1.551,3.521c0,1.313-0.468,2.465-1.551,3.394
	c-0.99,0.979-2.29,1.416-3.895,1.416c-1.458,0-2.692-0.437-3.762-1.416c-1.128-0.929-1.592-2.08-1.592-3.394
	c0-1.393,0.464-2.568,1.592-3.521c1.069-0.977,2.304-1.468,3.762-1.468H521.011z M538.122,287.603c1.513,0,2.785,0.491,3.807,1.468
	c1.055,0.952,1.563,2.128,1.563,3.521c0,1.313-0.509,2.465-1.563,3.394c-1.021,0.979-2.328,1.416-3.923,1.416
	c-1.427,0-2.74-0.437-3.793-1.416c-1.059-0.929-1.563-2.08-1.563-3.394c0-1.393,0.505-2.568,1.563-3.521
	c1.053-0.977,2.366-1.468,3.793-1.468H538.122z"/>
<path fill="#FFFFFF" d="M648.869,366.943h-1.62c-8.34-8.843-15.182-16.125-20.549-21.812c-5.374-5.711-9.599-10.286-12.872-13.707
	c-1.083-1.163-2.111-2.263-3.108-3.342c-0.955-1.028-1.949-2.104-2.895-3.163c-0.966-1.076-1.987-2.201-3.022-3.35
	c-1.041-1.189-2.104-2.461-3.317-3.851h-0.147v24.163c0,5.295,0.041,9.435,0.12,12.422c0.106,3.009,0.389,5.236,0.859,6.742
	c0.526,1.513,1.303,2.448,2.358,2.85c1.024,0.358,2.537,0.558,4.49,0.558v1.897c-2.183-0.055-4.301-0.096-6.265-0.096
	c-2.008-0.031-3.994-0.031-5.979-0.031c-2.101,0-3.968,0-5.61,0.031c-1.585,0-3.38,0.041-5.322,0.096v-1.897
	c1.997,0,3.548-0.199,4.61-0.558c1.076-0.401,1.836-1.337,2.354-2.85c0.479-1.506,0.739-3.733,0.854-6.742
	c0.093-2.987,0.134-7.127,0.134-12.422V300.98h1.633c4.212,4.59,8.045,8.726,11.449,12.404c3.451,3.683,6.528,6.996,9.341,9.978
	c2.747,3.025,5.212,5.652,7.354,7.948c2.107,2.293,3.981,4.291,5.638,6.024c1.083,1.086,2.115,2.148,3.022,3.155
	c0.932,0.953,1.798,2.025,2.768,3.07c0.846,1.049,1.846,2.142,2.843,3.239c0.998,1.175,2.115,2.451,3.342,3.864h0.272
	c0-0.795-0.031-1.736-0.069-2.689c-0.051-1.031-0.051-2.461-0.051-4.29v-7.323v-11.806c0-4.989-0.045-8.908-0.128-11.714
	c-0.065-2.843-0.389-4.944-0.862-6.423c-0.465-1.392-1.279-2.3-2.387-2.664c-1.059-0.357-2.65-0.543-4.638-0.543V301.3
	c1.818,0.059,3.683,0.1,5.587,0.131c1.953,0.041,3.826,0.041,5.738,0.041c1.945,0,3.816,0,5.642-0.041
	c1.818-0.031,3.613-0.072,5.374-0.131v1.912c-1.761,0-3.108,0.186-3.979,0.543c-0.911,0.364-1.602,1.272-2.073,2.664
	c-0.464,1.479-0.711,3.58-0.794,6.423c-0.023,2.806-0.096,6.725-0.096,11.714V366.943z"/>
<path fill="#FFFFFF" d="M701.793,341.975c0,5.295,0.034,9.459,0.12,12.439c0.12,3.012,0.396,5.25,0.908,6.718
	c0.471,1.517,1.282,2.435,2.386,2.778c1.155,0.378,2.706,0.547,4.73,0.547v1.894c-1.619-0.055-3.575-0.096-5.728-0.096
	c-2.155-0.031-4.411-0.031-6.715-0.031c-2.417,0-4.613,0-6.467,0.031c-1.96,0-3.871,0.041-5.734,0.096v-1.894
	c2.001,0,3.53-0.169,4.62-0.547c1.028-0.344,1.809-1.262,2.308-2.778c0.474-1.468,0.745-3.706,0.88-6.718
	c0.082-2.98,0.106-7.12,0.106-12.374v-17.657c0-4.996-0.024-8.867-0.106-11.714c-0.135-2.819-0.385-4.896-0.85-6.363
	c-0.433-1.39-1.203-2.252-2.21-2.586c-1.121-0.323-2.603-0.509-4.467-0.509v-1.912c1.761,0.059,3.628,0.101,5.607,0.131
	c1.943,0.042,4.009,0.042,6.158,0.042c2.228,0,4.452,0,6.539-0.042c2.159-0.03,3.954-0.072,5.298-0.131v1.912
	c-1.777,0-3.222,0.186-4.219,0.509c-1.024,0.334-1.736,1.196-2.166,2.586c-0.509,1.468-0.76,3.544-0.88,6.363
	c-0.086,2.847-0.12,6.718-0.12,11.624V341.975z M697.777,287.603c1.551,0,2.788,0.491,3.854,1.468
	c1.027,0.952,1.55,2.128,1.55,3.521c0,1.313-0.522,2.465-1.55,3.394c-1.066,0.979-2.345,1.416-3.934,1.416
	c-1.465,0-2.754-0.437-3.778-1.416c-1.063-0.929-1.592-2.08-1.592-3.394c0-1.393,0.529-2.568,1.592-3.521
	c1.024-0.977,2.313-1.468,3.778-1.468H697.777z"/>
<path fill="#FFFFFF" d="M770.374,367.182h-1.657l-18.991-42.797c-2.184-4.996-3.975-8.915-5.37-11.755
	c-1.444-2.826-2.613-4.938-3.662-6.347c-1.034-1.365-2.021-2.229-3.008-2.562c-1.001-0.326-2.229-0.509-3.658-0.509v-1.912
	c1.241,0.056,2.806,0.097,4.848,0.131c1.98,0.041,4.17,0.041,6.48,0.041c2.263,0,4.531,0,6.835-0.041
	c2.304-0.034,4.37-0.075,6.192-0.131v1.912c-2.304,0-3.988,0.183-5.071,0.509c-1.121,0.333-1.63,1.114-1.63,2.348
	c0,1.241,0.509,3.146,1.544,5.69c1.072,2.575,2.578,5.989,4.538,10.386c1.605,3.782,3.057,7.097,4.373,9.975
	c1.221,2.898,2.3,5.501,3.256,7.797c0.904,2.252,1.791,4.277,2.503,6.113c0.712,1.781,1.406,3.421,1.949,4.961h0.162
	c0.543-1.54,1.147-3.18,1.846-4.93c0.691-1.813,1.537-3.82,2.444-6.096c0.859-2.249,1.994-4.834,3.263-7.701
	c1.228-2.905,2.651-6.199,4.332-9.978c1.891-4.497,3.425-7.952,4.452-10.527c1.031-2.544,1.551-4.483,1.589-5.731
	c0.034-1.279-0.461-2.056-1.461-2.349c-1.076-0.315-2.72-0.467-4.868-0.467v-1.912c1.973,0.056,3.98,0.097,6.123,0.131
	c2.183,0.041,4.263,0.041,6.284,0.041c2.069,0,3.981,0,5.855-0.041c1.818-0.034,3.249-0.075,4.373-0.131v1.912
	c-1.365,0-2.458,0.183-3.394,0.509c-0.897,0.333-1.874,1.196-2.854,2.585c-0.966,1.469-2.101,3.541-3.466,6.364
	c-1.319,2.847-3.094,6.718-5.291,11.714L770.374,367.182z"/>
<path fill="#FFFFFF" d="M833.864,324.384c0-4.996,0-8.867-0.1-11.714c-0.083-2.822-0.323-4.896-0.712-6.363
	c-0.43-1.39-1.104-2.252-1.98-2.586c-0.914-0.323-2.266-0.509-3.937-0.509v-1.911c2.143,0.058,4.687,0.096,7.629,0.13
	c2.947,0.042,6.392,0.042,10.346,0.042c4.312,0,8.578,0,12.786-0.042c4.178-0.034,7.842-0.072,10.933-0.13
	c-0.147,2.338-0.316,4.672-0.43,7.079c-0.175,2.352-0.202,4.799-0.202,7.268h-2.032c-0.069-1.705-0.278-3.102-0.54-4.143
	c-0.296-1.018-0.756-1.867-1.431-2.421c-0.697-0.595-1.636-0.977-2.791-1.186c-1.203-0.203-2.74-0.289-4.565-0.289H842.48v22.327
	h10.496c1.994,0,3.692-0.018,5.054-0.087c1.331-0.048,2.451-0.209,3.29-0.491c0.794-0.278,1.424-0.712,1.836-1.275
	c0.402-0.581,0.671-1.379,0.818-2.376h1.96c-0.12,1.104-0.254,2.266-0.289,3.456c-0.079,1.151-0.079,2.385-0.079,3.609
	c0,1.44,0,2.83,0.079,4.232c0.035,1.375,0.169,2.736,0.289,4.057h-1.96c-0.1-1.142-0.351-2.073-0.739-2.72
	c-0.388-0.681-0.986-1.148-1.832-1.461c-0.825-0.306-1.922-0.519-3.184-0.602c-1.31-0.041-2.981-0.113-4.961-0.113H842.48v20.15
	c0,0.842,0,1.472,0.079,1.956c0.041,0.413,0.161,0.749,0.437,0.945c0.244,0.262,0.625,0.393,1.104,0.479
	c0.488,0.064,1.192,0.106,2.008,0.106h13.704c1.262,0,2.383-0.042,3.383-0.192c0.956-0.131,1.781-0.481,2.451-0.945
	c0.678-0.52,1.231-1.242,1.685-2.225c0.485-1.015,0.787-2.346,0.963-3.999h2.008c-0.068,1.97-0.268,4.194-0.437,6.656
	c-0.103,2.458-0.175,4.882-0.175,7.255c-3.284-0.059-7.024-0.097-11.268-0.097c-4.266-0.031-8.468-0.031-12.687-0.031
	c-4.229,0-7.903,0-11.053,0.031c-3.222,0-5.876,0.038-8.038,0.097v-1.898c1.836,0,3.225-0.168,4.219-0.543
	c0.986-0.348,1.691-1.262,2.148-2.781c0.43-1.465,0.67-3.707,0.753-6.719c0.1-2.977,0.1-7.141,0.1-12.435V324.384z"/>
<path fill="#FFFFFF" d="M907.648,324.383c0-4.995-0.045-8.866-0.141-11.714c-0.106-2.818-0.389-4.896-0.818-6.363
	c-0.443-1.39-1.189-2.252-2.242-2.586c-1.007-0.323-2.499-0.509-4.373-0.509v-1.739h10.432c0.756,0,1.608,0,2.51-0.041
	c0.938-0.031,1.895-0.072,2.84-0.131c1,0,1.956,0,2.908-0.045c0.918-0.034,1.826-0.034,2.665-0.034c2.303,0,4.541,0.138,6.677,0.433
	c2.128,0.255,3.939,0.667,5.497,1.225c3.387,1.176,6.157,3.111,8.354,5.889c2.155,2.796,3.211,6.316,3.211,10.621
	c0,3.479-0.753,6.494-2.297,8.98c-1.547,2.461-3.304,4.459-5.287,5.886c-1.073,0.763-2.193,1.479-3.463,2.024
	c-1.203,0.602-2.345,1.056-3.472,1.382v0.169c0.9,1.076,1.719,2.231,2.592,3.355c0.88,1.128,1.96,2.441,3.19,4.047
	c1.187,1.54,2.658,3.403,4.377,5.639c1.705,2.189,3.806,4.909,6.313,8.117c1.409,1.773,2.819,3.107,4.39,4.087
	c1.507,0.905,3.284,1.379,5.36,1.379v1.843c-1.389,0-2.747-0.041-3.95-0.041c-1.262-0.031-2.503-0.031-3.61-0.031
	c-0.88,0-1.674,0-2.345,0.031c-0.725,0-1.437,0.041-2.228,0.041c-2.015,0-3.579-0.719-4.655-2.145
	c-3.094-4.188-6.123-8.3-9.024-12.388c-2.953-4.081-5.962-8.248-9.019-12.456c-1.21,0-2.358,0-3.466-0.048
	c-1.154,0-2.065-0.031-2.719-0.031v5.006c0,4.728,0.055,8.472,0.134,11.152c0.106,2.672,0.396,4.69,0.866,6.052
	c0.416,1.33,1.162,2.187,2.121,2.52c0.956,0.33,2.38,0.495,4.219,0.495v1.897c-1.839-0.055-3.672-0.096-5.418-0.096
	c-1.788-0.031-3.686-0.031-5.817-0.031c-2.142,0-4.129,0-5.969,0.031c-1.894,0-3.792,0.041-5.813,0.096v-1.897
	c1.847,0,3.328-0.165,4.363-0.543c0.979-0.344,1.705-1.262,2.148-2.777c0.43-1.469,0.712-3.707,0.818-6.719
	c0.096-2.98,0.141-7.144,0.141-12.438V324.383z M936.223,319.82c0-1.767-0.269-3.421-0.832-4.968
	c-0.592-1.517-1.513-2.816-2.661-3.892c-1.18-1.11-2.706-1.991-4.546-2.582c-1.818-0.605-3.974-0.956-6.384-0.956
	c-1.09,0-2.197,0.031-3.26,0.117c-1.12,0.034-2.031,0.117-2.685,0.154v25.407c0.824,0.059,1.526,0.1,2.245,0.135
	c0.629,0,1.375,0.023,2.221,0.023c3.981,0,7.333-0.818,9.946-2.431c1.65-0.907,3.039-2.313,4.257-4.249
	c1.161-1.926,1.698-4.133,1.698-6.701V319.82z"/>
<path fill="#FFFFFF" d="M1016.986,349.524c0,2.455-0.464,4.728-1.416,6.824c-0.994,2.156-2.431,3.999-4.346,5.56
	c-1.867,1.603-4.185,2.843-6.941,3.755c-2.796,0.914-5.944,1.385-9.489,1.385c-2.847,0-5.669-0.295-8.447-0.873
	c-2.796-0.599-5.03-1.234-6.622-1.96c0.21-1.87,0.375-4.104,0.485-6.687c0.12-2.571,0.199-5.261,0.281-8.11h1.994
	c0.12,2.162,0.472,4.005,1.135,5.418c0.563,1.447,1.451,2.589,2.523,3.438c1.035,0.801,2.29,1.423,3.81,1.802
	c1.468,0.381,3.094,0.577,4.841,0.577c4.043,0,7.258-0.914,9.668-2.765c2.393-1.805,3.613-4.266,3.613-7.356
	c0-1.943-0.471-3.734-1.303-5.268c-0.84-1.578-2.311-3.098-4.291-4.497c-1.316-0.956-2.799-1.922-4.298-2.901
	c-1.509-0.987-3.249-2.021-5.157-3.115c-3.86-2.345-6.813-4.83-8.843-7.54c-2.069-2.736-3.049-5.913-3.049-9.533
	c0-2.431,0.471-4.614,1.471-6.667c1.015-2.042,2.466-3.822,4.305-5.346c1.819-1.506,3.961-2.727,6.539-3.568
	c2.548-0.877,5.388-1.29,8.469-1.29c2.196,0,4.425,0.176,6.614,0.495c2.19,0.352,4.085,0.753,5.834,1.225
	c-0.199,2.476-0.347,4.896-0.437,7.323c-0.079,2.434-0.113,4.765-0.113,6.996h-2.107c0.079-2.015-0.134-3.572-0.529-4.693
	c-0.457-1.142-1.183-2.107-2.225-2.912c-1.76-1.303-4.212-1.963-7.385-1.963c-3.332,0-6.134,0.88-8.361,2.572
	c-2.222,1.712-3.324,4.091-3.324,7.071c0,3.339,1.585,6.244,4.826,8.712c1.225,0.945,2.606,1.902,4.085,2.937
	c1.45,1.021,3.365,2.19,5.587,3.469c1.812,1.018,3.438,2.143,4.94,3.328c1.506,1.146,2.843,2.432,4.057,3.83
	c1.101,1.42,2.056,2.933,2.661,4.645c0.622,1.671,0.945,3.528,0.945,5.577V349.524z"/>
<path fill="#FFFFFF" d="M1061.836,341.975c0,5.295,0.034,9.459,0.12,12.439c0.113,3.012,0.409,5.25,0.901,6.718
	c0.495,1.517,1.289,2.435,2.396,2.778c1.114,0.378,2.692,0.547,4.693,0.547v1.894c-1.637-0.055-3.531-0.096-5.693-0.096
	c-2.148-0.031-4.397-0.031-6.749-0.031c-2.403,0-4.565,0-6.491,0.031c-1.895,0-3.795,0.041-5.683,0.096v-1.894
	c2.001,0,3.507-0.169,4.613-0.547c1.042-0.344,1.826-1.262,2.317-2.778c0.471-1.468,0.791-3.706,0.859-6.718
	c0.072-2.98,0.142-7.12,0.142-12.374v-17.657c0-4.996-0.069-8.867-0.142-11.714c-0.068-2.819-0.389-4.896-0.825-6.363
	c-0.478-1.39-1.237-2.252-2.259-2.586c-1.072-0.323-2.551-0.509-4.411-0.509v-1.912c1.74,0.059,3.594,0.101,5.58,0.131
	c1.96,0.042,4.037,0.042,6.123,0.042c2.28,0,4.467,0,6.615-0.042c2.111-0.03,3.902-0.072,5.284-0.131v1.912
	c-1.825,0-3.228,0.186-4.201,0.509c-1.035,0.334-1.768,1.196-2.189,2.586c-0.472,1.468-0.768,3.544-0.881,6.363
	c-0.086,2.847-0.12,6.718-0.12,11.624V341.975z M1057.82,287.603c1.523,0,2.774,0.491,3.799,1.468
	c1.049,0.952,1.626,2.128,1.626,3.521c0,1.313-0.577,2.465-1.626,3.394c-1.024,0.979-2.341,1.416-3.919,1.416
	c-1.431,0-2.692-0.437-3.775-1.416c-1.045-0.929-1.585-2.08-1.585-3.394c0-1.393,0.54-2.568,1.585-3.521
	c1.083-0.977,2.345-1.468,3.775-1.468H1057.82z"/>
<path fill="#FFFFFF" d="M1119.081,307.539h-12.639c-1.791,0-3.249,0.117-4.377,0.357c-1.147,0.262-2.069,0.667-2.739,1.317
	c-0.732,0.67-1.184,1.52-1.472,2.612c-0.348,1.142-0.592,2.559-0.753,4.318h-1.946v-14.746c4.404,0.056,8.581,0.072,12.532,0.072
	h11.394h8.516h12.515c3.988,0,7.749-0.017,11.208-0.072v14.746h-2.021c-0.12-1.76-0.31-3.218-0.599-4.359
	c-0.268-1.121-0.711-1.983-1.31-2.637c-0.719-0.637-1.558-1.076-2.713-1.286c-1.1-0.206-2.503-0.323-4.242-0.323h-12.838v34.439
	c0,5.294,0.024,9.495,0.113,12.477c0.094,3.036,0.389,5.284,0.918,6.749c0.472,1.481,1.296,2.361,2.431,2.706
	c1.056,0.378,2.647,0.546,4.728,0.546v1.895c-1.636-0.055-3.53-0.096-5.659-0.096c-2.121-0.031-4.332-0.031-6.662-0.031
	c-2.276,0-4.587,0-6.76,0.031c-2.266,0-4.171,0.041-5.776,0.096v-1.895c2.029,0,3.6-0.168,4.734-0.546
	c1.155-0.345,1.915-1.225,2.431-2.706c0.479-1.465,0.746-3.713,0.866-6.749c0.072-2.981,0.121-7.183,0.121-12.477V307.539z"/>
<path fill="#FFFFFF" d="M1187.083,324.384c0-4.996-0.068-8.867-0.141-11.714c-0.027-2.822-0.269-4.896-0.719-6.363
	c-0.45-1.39-1.101-2.252-2.021-2.586c-0.915-0.323-2.235-0.509-3.916-0.509v-1.911c2.132,0.058,4.669,0.096,7.629,0.13
	c2.975,0.042,6.381,0.042,10.349,0.042c4.305,0,8.596,0,12.779-0.042c4.215-0.034,7.877-0.072,10.978-0.13
	c-0.199,2.338-0.36,4.672-0.457,7.079c-0.147,2.352-0.172,4.799-0.172,7.268h-2.049c-0.1-1.705-0.31-3.102-0.592-4.143
	c-0.261-1.018-0.718-1.867-1.382-2.421c-0.674-0.595-1.66-0.977-2.788-1.186c-1.196-0.203-2.754-0.289-4.607-0.289h-14.367v22.327
	h10.507c2.076,0,3.699-0.018,5.084-0.087c1.355-0.048,2.476-0.209,3.25-0.491c0.845-0.278,1.45-0.712,1.887-1.275
	c0.361-0.581,0.623-1.379,0.867-2.376h1.866c-0.075,1.104-0.183,2.266-0.237,3.456c-0.079,1.151-0.127,2.385-0.127,3.609
	c0,1.44,0.048,2.83,0.127,4.232c0.055,1.375,0.162,2.736,0.237,4.057h-1.866c-0.148-1.142-0.403-2.073-0.802-2.72
	c-0.423-0.681-1.024-1.148-1.818-1.461c-0.847-0.306-1.915-0.519-3.235-0.602c-1.303-0.041-2.943-0.113-4.965-0.113h-10.774v20.15
	c0,0.842,0.059,1.472,0.127,1.956c0.044,0.413,0.199,0.749,0.423,0.945c0.254,0.262,0.602,0.393,1.135,0.479
	c0.443,0.064,1.12,0.106,1.967,0.106h13.725c1.296,0,2.393-0.042,3.393-0.192c0.96-0.131,1.785-0.481,2.455-0.945
	c0.646-0.52,1.189-1.242,1.682-2.225c0.461-1.015,0.783-2.346,0.952-3.999h1.987c-0.12,1.97-0.255,4.194-0.396,6.656
	c-0.175,2.458-0.21,4.882-0.21,7.255c-3.256-0.059-7.003-0.097-11.253-0.097c-4.249-0.031-8.468-0.031-12.68-0.031
	c-4.2,0-7.914,0-11.091,0.031c-3.225,0-5.889,0.038-7.977,0.097v-1.898c1.813,0,3.222-0.168,4.167-0.543
	c0.994-0.348,1.702-1.262,2.17-2.781c0.45-1.465,0.732-3.707,0.76-6.719c0.072-2.977,0.141-7.141,0.141-12.435V324.384z"/>
<path fill="#FFFFFF" d="M1293.381,349.524c0,2.455-0.471,4.728-1.479,6.824c-0.924,2.156-2.368,3.999-4.29,5.56
	c-1.874,1.603-4.223,2.843-7.004,3.755c-2.732,0.914-5.868,1.385-9.413,1.385c-2.86,0-5.68-0.295-8.516-0.873
	c-2.778-0.599-4.976-1.234-6.561-1.96c0.217-1.87,0.371-4.104,0.451-6.687c0.147-2.571,0.254-5.261,0.316-8.11h1.979
	c0.114,2.162,0.478,4.005,1.066,5.418c0.632,1.447,1.526,2.589,2.585,3.438c1.042,0.801,2.266,1.423,3.789,1.802
	c1.471,0.381,3.149,0.577,4.889,0.577c4.016,0,7.224-0.914,9.623-2.765c2.424-1.805,3.606-4.266,3.606-7.356
	c0-1.943-0.426-3.734-1.278-5.268c-0.813-1.578-2.283-3.098-4.271-4.497c-1.323-0.956-2.799-1.922-4.27-2.901
	c-1.558-0.987-3.305-2.021-5.257-3.115c-3.789-2.345-6.791-4.83-8.819-7.54c-2.015-2.736-3.046-5.913-3.046-9.533
	c0-2.431,0.536-4.614,1.496-6.667c1.055-2.042,2.479-3.822,4.249-5.346c1.881-1.506,4.016-2.727,6.601-3.568
	c2.555-0.877,5.381-1.29,8.482-1.29c2.176,0,4.38,0.176,6.601,0.495c2.19,0.352,4.102,0.753,5.842,1.225
	c-0.187,2.476-0.348,4.896-0.416,7.323c-0.1,2.434-0.179,4.765-0.179,6.996h-2.111c0.09-2.015-0.065-3.572-0.522-4.693
	c-0.423-1.142-1.114-2.107-2.177-2.912c-1.746-1.303-4.264-1.963-7.405-1.963c-3.338,0-6.157,0.88-8.334,2.572
	c-2.228,1.712-3.338,4.091-3.338,7.071c0,3.339,1.626,6.244,4.854,8.712c1.183,0.945,2.547,1.902,4.057,2.937
	c1.458,1.021,3.324,2.19,5.594,3.469c1.788,1.018,3.424,2.143,4.923,3.328c1.523,1.146,2.875,2.432,3.988,3.83
	c1.228,1.42,2.107,2.933,2.74,4.645c0.63,1.671,0.952,3.528,0.952,5.577V349.524z"/>
<path fill="#FFFFFF" d="M1340.178,341.975c0,5.295,0.028,9.459,0.128,12.439c0.079,3.012,0.347,5.25,0.812,6.718
	c0.484,1.517,1.31,2.435,2.479,2.778c1.101,0.378,2.672,0.547,4.699,0.547v1.894c-1.69-0.055-3.599-0.096-5.72-0.096
	c-2.156-0.031-4.377-0.031-6.735-0.031c-2.424,0-4.56,0-6.519,0.031c-1.908,0-3.816,0.041-5.722,0.096v-1.894
	c2.025,0,3.572-0.169,4.611-0.547c1.083-0.344,1.866-1.262,2.331-2.778c0.543-1.468,0.817-3.706,0.88-6.718
	c0.086-2.98,0.12-7.12,0.12-12.374v-17.657c0-4.996-0.034-8.867-0.12-11.714c-0.063-2.819-0.337-4.896-0.788-6.363
	c-0.474-1.39-1.228-2.252-2.313-2.586c-1.069-0.323-2.527-0.509-4.407-0.509v-1.912c1.712,0.059,3.62,0.101,5.556,0.131
	c2.039,0.042,4.061,0.042,6.209,0.042c2.225,0,4.452,0,6.574-0.042c2.128-0.03,3.888-0.072,5.277-0.131v1.912
	c-1.778,0-3.215,0.186-4.243,0.509c-1.007,0.334-1.753,1.196-2.196,2.586c-0.438,1.468-0.705,3.544-0.784,6.363
	c-0.1,2.847-0.128,6.718-0.128,11.624V341.975z M1336.135,287.603c1.499,0,2.768,0.491,3.841,1.468
	c1.049,0.952,1.52,2.128,1.52,3.521c0,1.313-0.471,2.465-1.52,3.394c-1.073,0.979-2.342,1.416-3.92,1.416
	c-1.478,0-2.709-0.437-3.788-1.416c-1.08-0.929-1.634-2.08-1.634-3.394c0-1.393,0.554-2.568,1.634-3.521
	c1.079-0.977,2.311-1.468,3.788-1.468H1336.135z"/>
<polygon fill="#FFFFFF" points="52.517,52.36 104.686,52.36 104.686,130.852 157.002,130.852 157.002,0.002 0,0.002 0,104.66 
	52.517,104.66 "/>
<polygon fill="#FFFFFF" points="183.196,0 183.196,130.853 235.52,130.853 235.52,52.358 287.861,52.358 287.861,104.737 
	340.206,104.737 340.206,0 "/>
<polygon fill="#FFFFFF" points="0.254,157.218 0.254,366.345 157.016,366.345 157.016,235.52 104.699,235.52 104.699,314.007 
	52.323,314.007 52.323,209.565 287.882,209.565 287.882,313.99 235.541,313.99 235.541,235.52 183.141,235.52 183.141,366.345 
	340.182,366.345 340.182,157.218 "/>
</svg>
